<svg width="26" height="26" viewBox="0 0 26 26" fill="none" xmlns="http://www.w3.org/2000/svg">
<path fill-rule="evenodd" clip-rule="evenodd" d="M2 4C2 2.89543 2.89543 2 4 2H22C23.1046 2 24 2.89543 24 4V22C24 23.1046 23.1046 24 22 24H4C2.89543 24 2 23.1046 2 22V4ZM7.5 9C8.0523 9 8.5 8.5523 8.5 8C8.5 7.4477 8.0523 7 7.5 7C6.9477 7 6.5 7.4477 6.5 8C6.5 8.5523 6.9477 9 7.5 9ZM9.5 8C9.5 7.44772 9.94772 7 10.5 7H18.5C19.0523 7 19.5 7.44772 19.5 8C19.5 8.55228 19.0523 9 18.5 9H10.5C9.94772 9 9.5 8.55228 9.5 8ZM10.5 12C9.94772 12 9.5 12.4477 9.5 13C9.5 13.5523 9.94772 14 10.5 14H18.5C19.0523 14 19.5 13.5523 19.5 13C19.5 12.4477 19.0523 12 18.5 12H10.5ZM10.5 17C9.94772 17 9.5 17.4477 9.5 18C9.5 18.5523 9.94772 19 10.5 19H18.5C19.0523 19 19.5 18.5523 19.5 18C19.5 17.4477 19.0523 17 18.5 17H10.5ZM7.5 14C8.0523 14 8.5 13.5523 8.5 13C8.5 12.4477 8.0523 12 7.5 12C6.9477 12 6.5 12.4477 6.5 13C6.5 13.5523 6.9477 14 7.5 14ZM7.5 19C8.0523 19 8.5 18.5523 8.5 18C8.5 17.4477 8.0523 17 7.5 17C6.9477 17 6.5 17.4477 6.5 18C6.5 18.5523 6.9477 19 7.5 19Z" fill="#8585AD"/>
<path d="M1 1V0.5H0.5V1H1ZM25 1H25.5V0.5H25V1ZM25 25V25.5H25.5V25H25ZM1 25H0.5V25.5H1V25ZM0.5 1V2H1.5V1H0.5ZM0.5 4V6H1.5V4H0.5ZM0.5 8V10H1.5V8H0.5ZM0.5 12V14H1.5V12H0.5ZM0.5 16V18H1.5V16H0.5ZM0.5 20V22H1.5V20H0.5ZM0.5 24V25H1.5V24H0.5ZM1 25.5H2V24.5H1V25.5ZM4 25.5H6V24.5H4V25.5ZM8 25.5H10V24.5H8V25.5ZM12 25.5H14V24.5H12V25.5ZM16 25.5H18V24.5H16V25.5ZM20 25.5H22V24.5H20V25.5ZM24 25.5H25V24.5H24V25.5ZM25.5 25V24H24.5V25H25.5ZM25.5 22V20H24.5V22H25.5ZM25.5 18V16H24.5V18H25.5ZM25.5 14V12H24.5V14H25.5ZM25.5 10V8H24.5V10H25.5ZM25.5 6V4H24.5V6H25.5ZM25.5 2V1H24.5V2H25.5ZM25 0.5H24V1.5H25V0.5ZM22 0.5H20V1.5H22V0.5ZM18 0.5H16V1.5H18V0.5ZM14 0.5H12V1.5H14V0.5ZM10 0.5H8V1.5H10V0.5ZM6 0.5H4V1.5H6V0.5ZM2 0.5H1V1.5H2V0.5ZM1 1V0H0V1H1ZM25 1H26V0H25V1ZM25 25V26H26V25H25ZM1 25H0V26H1V25ZM0 1V2H2V1H0ZM0 4V6H2V4H0ZM0 8V10H2V8H0ZM0 12V14H2V12H0ZM0 16V18H2V16H0ZM0 20V22H2V20H0ZM0 24V25H2V24H0ZM1 26H2V24H1V26ZM4 26H6V24H4V26ZM8 26H10V24H8V26ZM12 26H14V24H12V26ZM16 26H18V24H16V26ZM20 26H22V24H20V26ZM24 26H25V24H24V26ZM26 25V24H24V25H26ZM26 22V20H24V22H26ZM26 18V16H24V18H26ZM26 14V12H24V14H26ZM26 10V8H24V10H26ZM26 6V4H24V6H26ZM26 2V1H24V2H26ZM25 0H24V2H25V0ZM22 0H20V2H22V0ZM18 0H16V2H18V0ZM14 0H12V2H14V0ZM10 0H8V2H10V0ZM6 0H4V2H6V0ZM2 0H1V2H2V0Z" fill="#4C4CFF"/>
</svg>
