<svg width="292" height="50" viewBox="0 0 292 50" fill="none" xmlns="http://www.w3.org/2000/svg">
<path d="M1 5H290.155V45H1V5Z" fill="#1C1C21"/>
<g filter="url(#filter0_f_47088_704)">
<path d="M160.513 37.6331C161.013 37.0196 160.562 36.1398 159.77 36.1268C149.664 35.9604 141.212 36.1472 130.758 36.7832C129.967 36.8314 129.555 37.7311 130.083 38.3217C133.746 42.4201 139.074 45 145.004 45C151.26 45 156.845 42.1291 160.513 37.6331Z" stroke="#4C4CFF" stroke-linecap="round" stroke-linejoin="round"/>
<path d="M127.643 15.0579C127.252 15.7378 127.827 16.5294 128.606 16.436C140.173 15.048 148.698 14.6341 160.788 15.3703C161.575 15.4182 162.104 14.5873 161.668 13.9313C158.083 8.54757 151.958 5 145.004 5C137.576 5 131.093 9.04797 127.643 15.0579Z" stroke="#4C4CFF" stroke-linecap="round" stroke-linejoin="round"/>
</g>
<g filter="url(#filter1_f_47088_704)">
<path d="M160.513 37.6331C161.013 37.0196 160.562 36.1398 159.77 36.1268C149.664 35.9604 141.212 36.1472 130.758 36.7832C129.967 36.8314 129.555 37.7311 130.083 38.3217C133.746 42.4201 139.074 45 145.004 45C151.26 45 156.845 42.1291 160.513 37.6331Z" stroke="#4C4CFF" stroke-linecap="round" stroke-linejoin="round"/>
<path d="M127.643 15.0579C127.252 15.7378 127.827 16.5294 128.606 16.436C140.173 15.048 148.698 14.6341 160.788 15.3703C161.575 15.4182 162.104 14.5873 161.668 13.9313C158.083 8.54757 151.958 5 145.004 5C137.576 5 131.093 9.04797 127.643 15.0579Z" stroke="#4C4CFF" stroke-linecap="round" stroke-linejoin="round"/>
</g>
<path d="M160.513 37.6331C161.013 37.0196 160.562 36.1398 159.77 36.1268C149.664 35.9604 141.212 36.1472 130.758 36.7832C129.967 36.8314 129.555 37.7311 130.083 38.3217C133.746 42.4201 139.074 45 145.004 45C151.26 45 156.845 42.1291 160.513 37.6331Z" stroke="#4C4CFF" stroke-linecap="round" stroke-linejoin="round"/>
<path d="M127.643 15.0579C127.252 15.7378 127.827 16.5294 128.606 16.436C140.173 15.048 148.698 14.6341 160.788 15.3703C161.575 15.4182 162.104 14.5873 161.668 13.9313C158.083 8.54757 151.958 5 145.004 5C137.576 5 131.093 9.04797 127.643 15.0579Z" stroke="#4C4CFF" stroke-linecap="round" stroke-linejoin="round"/>
<path d="M160.513 37.6331C161.013 37.0196 160.562 36.1398 159.77 36.1268C149.664 35.9604 141.212 36.1472 130.758 36.7832C129.967 36.8314 129.555 37.7311 130.083 38.3217C133.746 42.4201 139.074 45 145.004 45C151.26 45 156.845 42.1291 160.513 37.6331Z" stroke="white" stroke-width="0.5" stroke-linecap="round" stroke-linejoin="round"/>
<path d="M127.643 15.0579C127.252 15.7378 127.827 16.5294 128.606 16.436C140.173 15.048 148.698 14.6341 160.788 15.3703C161.575 15.4182 162.104 14.5873 161.668 13.9313C158.083 8.54757 151.958 5 145.004 5C137.576 5 131.093 9.04797 127.643 15.0579Z" stroke="white" stroke-width="0.5" stroke-linecap="round" stroke-linejoin="round"/>
<g filter="url(#filter2_f_47088_704)">
<path d="M164.859 27.4656C164.988 26.4133 164.172 25.5115 163.115 25.4264C150.235 24.3883 140.184 24.2251 126.89 24.9245C125.831 24.9802 124.99 25.8596 125.089 26.9156C125.23 28.4145 125.537 29.8654 125.991 31.2496C126.253 32.0473 127.032 32.5408 127.871 32.5118C140.383 32.0783 150.06 32.0468 162.196 32.3747C163.035 32.3973 163.811 31.8976 164.066 31.0975C164.439 29.9298 164.707 28.7155 164.859 27.4656Z" stroke="#E33CD5" stroke-linecap="round" stroke-linejoin="round"/>
</g>
<g filter="url(#filter3_f_47088_704)">
<path d="M164.859 27.4656C164.988 26.4133 164.172 25.5115 163.115 25.4264C150.235 24.3883 140.184 24.2251 126.89 24.9245C125.831 24.9802 124.99 25.8596 125.089 26.9156C125.23 28.4145 125.537 29.8654 125.991 31.2496C126.253 32.0473 127.032 32.5408 127.871 32.5118C140.383 32.0783 150.06 32.0468 162.196 32.3747C163.035 32.3973 163.811 31.8976 164.066 31.0975C164.439 29.9298 164.707 28.7155 164.859 27.4656Z" stroke="#E33CD5" stroke-linecap="round" stroke-linejoin="round"/>
</g>
<path d="M164.859 27.4656C164.988 26.4133 164.172 25.5115 163.115 25.4264C150.235 24.3883 140.184 24.2251 126.89 24.9245C125.831 24.9802 124.99 25.8596 125.089 26.9156C125.23 28.4145 125.537 29.8654 125.991 31.2496C126.253 32.0473 127.032 32.5408 127.871 32.5118C140.383 32.0783 150.06 32.0468 162.196 32.3747C163.035 32.3973 163.811 31.8976 164.066 31.0975C164.439 29.9298 164.707 28.7155 164.859 27.4656Z" stroke="#E33CD5" stroke-linecap="round" stroke-linejoin="round"/>
<path d="M164.859 27.4656C164.988 26.4133 164.172 25.5115 163.115 25.4264C150.235 24.3883 140.184 24.2251 126.89 24.9245C125.831 24.9802 124.99 25.8596 125.089 26.9156C125.23 28.4145 125.537 29.8654 125.991 31.2496C126.253 32.0473 127.032 32.5408 127.871 32.5118C140.383 32.0783 150.06 32.0468 162.196 32.3747C163.035 32.3973 163.811 31.8976 164.066 31.0975C164.439 29.9298 164.707 28.7155 164.859 27.4656Z" stroke="white" stroke-width="0.5" stroke-linecap="round" stroke-linejoin="round"/>
<g filter="url(#filter4_f_47088_704)">
<path d="M125 20.5C127.667 18.5 130.333 18.5 133 20.5C135.667 22.5 138.333 22.5 141 20.5C143.667 18.5 146.333 18.5 149 20.5C151.667 22.5 154.333 22.5 157 20.5C159.667 18.5 162.333 18.5 165 20.5" stroke="#00CCCC" stroke-linecap="round" stroke-linejoin="round"/>
</g>
<g filter="url(#filter5_f_47088_704)">
<path d="M125 20.5C127.667 18.5 130.333 18.5 133 20.5C135.667 22.5 138.333 22.5 141 20.5C143.667 18.5 146.333 18.5 149 20.5C151.667 22.5 154.333 22.5 157 20.5C159.667 18.5 162.333 18.5 165 20.5" stroke="#00CCCC" stroke-linecap="round" stroke-linejoin="round"/>
</g>
<path d="M125 20.5C127.667 18.5 130.333 18.5 133 20.5C135.667 22.5 138.333 22.5 141 20.5C143.667 18.5 146.333 18.5 149 20.5C151.667 22.5 154.333 22.5 157 20.5C159.667 18.5 162.333 18.5 165 20.5" stroke="#00CCCC" stroke-linecap="round" stroke-linejoin="round"/>
<path d="M125 20.5C127.667 18.5 130.333 18.5 133 20.5C135.667 22.5 138.333 22.5 141 20.5C143.667 18.5 146.333 18.5 149 20.5C151.667 22.5 154.333 22.5 157 20.5C159.667 18.5 162.333 18.5 165 20.5" stroke="white" stroke-width="0.5" stroke-linecap="round" stroke-linejoin="round"/>
<g filter="url(#filter6_f_47088_704)">
<ellipse rx="1" ry="0.75" transform="matrix(0.885492 0.464655 0.464655 -0.885492 138.234 39.9812)" stroke="#4C4CFF"/>
<ellipse cx="153.708" cy="11.3542" rx="1.5" ry="1" transform="rotate(15 153.708 11.3542)" stroke="#4C4CFF"/>
<ellipse rx="1" ry="0.75" transform="matrix(0.965926 -0.258819 -0.258819 -0.965926 151.16 39.9833)" stroke="#4C4CFF"/>
<ellipse cx="143.5" cy="12" rx="1.5" ry="1" transform="rotate(180 143.5 12)" stroke="#4C4CFF"/>
<ellipse cx="147.708" cy="8.35415" rx="1.5" ry="1" transform="rotate(15 147.708 8.35415)" stroke="#4C4CFF"/>
<ellipse rx="1" ry="0.75" transform="matrix(1 0 0 -1 145 41.75)" stroke="#4C4CFF"/>
<ellipse cx="136.793" cy="10.5826" rx="1.5" ry="1" transform="rotate(-27.6879 136.793 10.5826)" stroke="#4C4CFF"/>
</g>
<g filter="url(#filter7_f_47088_704)">
<ellipse rx="1" ry="0.75" transform="matrix(0.885492 0.464655 0.464655 -0.885492 138.234 39.9812)" stroke="#4C4CFF"/>
<ellipse cx="153.708" cy="11.3542" rx="1.5" ry="1" transform="rotate(15 153.708 11.3542)" stroke="#4C4CFF"/>
<ellipse rx="1" ry="0.75" transform="matrix(0.965926 -0.258819 -0.258819 -0.965926 151.16 39.9833)" stroke="#4C4CFF"/>
<ellipse cx="143.5" cy="12" rx="1.5" ry="1" transform="rotate(180 143.5 12)" stroke="#4C4CFF"/>
<ellipse cx="147.708" cy="8.35415" rx="1.5" ry="1" transform="rotate(15 147.708 8.35415)" stroke="#4C4CFF"/>
<ellipse rx="1" ry="0.75" transform="matrix(1 0 0 -1 145 41.75)" stroke="#4C4CFF"/>
<ellipse cx="136.793" cy="10.5826" rx="1.5" ry="1" transform="rotate(-27.6879 136.793 10.5826)" stroke="#4C4CFF"/>
</g>
<ellipse rx="1" ry="0.75" transform="matrix(0.885492 0.464655 0.464655 -0.885492 138.234 39.9812)" stroke="#4C4CFF"/>
<ellipse cx="153.708" cy="11.3542" rx="1.5" ry="1" transform="rotate(15 153.708 11.3542)" stroke="#4C4CFF"/>
<ellipse rx="1" ry="0.75" transform="matrix(0.965926 -0.258819 -0.258819 -0.965926 151.16 39.9833)" stroke="#4C4CFF"/>
<ellipse cx="143.5" cy="12" rx="1.5" ry="1" transform="rotate(180 143.5 12)" stroke="#4C4CFF"/>
<ellipse cx="147.708" cy="8.35415" rx="1.5" ry="1" transform="rotate(15 147.708 8.35415)" stroke="#4C4CFF"/>
<ellipse rx="1" ry="0.75" transform="matrix(1 0 0 -1 145 41.75)" stroke="#4C4CFF"/>
<ellipse cx="136.793" cy="10.5826" rx="1.5" ry="1" transform="rotate(-27.6879 136.793 10.5826)" stroke="#4C4CFF"/>
<ellipse rx="1" ry="0.75" transform="matrix(0.885492 0.464655 0.464655 -0.885492 138.234 39.9812)" stroke="white" stroke-width="0.5"/>
<ellipse cx="153.708" cy="11.3542" rx="1.5" ry="1" transform="rotate(15 153.708 11.3542)" stroke="white" stroke-width="0.5"/>
<ellipse rx="1" ry="0.75" transform="matrix(0.965926 -0.258819 -0.258819 -0.965926 151.16 39.9833)" stroke="white" stroke-width="0.5"/>
<ellipse cx="143.5" cy="12" rx="1.5" ry="1" transform="rotate(180 143.5 12)" stroke="white" stroke-width="0.5"/>
<ellipse cx="147.708" cy="8.35415" rx="1.5" ry="1" transform="rotate(15 147.708 8.35415)" stroke="white" stroke-width="0.5"/>
<ellipse rx="1" ry="0.75" transform="matrix(1 0 0 -1 145 41.75)" stroke="white" stroke-width="0.5"/>
<ellipse cx="136.793" cy="10.5826" rx="1.5" ry="1" transform="rotate(-27.6879 136.793 10.5826)" stroke="white" stroke-width="0.5"/>
<path d="M3.8 25.544C2.968 25.544 2.29067 25.304 1.768 24.824C1.256 24.3333 1 23.672 1 22.84C1 21.7413 1.432 20.9467 2.296 20.456C2.712 20.2213 3.21333 20.104 3.8 20.104H15.128V22.2H4.328C3.74133 22.2 3.448 22.424 3.448 22.872C3.448 23.32 3.74133 23.544 4.328 23.544L12.808 23.56C13.64 23.56 14.312 23.8053 14.824 24.296C15.3467 24.7867 15.608 25.448 15.608 26.28C15.608 27.4 15.176 28.1947 14.312 28.664C13.9067 28.888 13.4053 29 12.808 29H1V26.904L12.28 26.92C12.8667 26.92 13.16 26.6907 13.16 26.232C13.16 25.784 12.8667 25.56 12.28 25.56L3.8 25.544Z" fill="white"/>
<path d="M30.425 29H22.361C21.4223 29 20.745 28.7867 20.329 28.36C20.0623 28.0827 19.8863 27.768 19.801 27.416C19.737 27.1813 19.705 26.8187 19.705 26.328V22.2H18.105V20.104H19.705V16.552H22.377V20.104H30.425V22.2H22.377V25.672C22.377 26.1627 22.489 26.4987 22.713 26.68C22.8943 26.8293 23.1983 26.904 23.625 26.904H30.425V29Z" fill="white"/>
<path d="M37.8809 26.904H47.1769V29H37.5289C36.1422 29 35.0809 28.6107 34.3449 27.832C33.6195 27.0427 33.2569 25.9493 33.2569 24.552C33.2569 23.1547 33.6195 22.0667 34.3449 21.288C35.0809 20.4987 36.1422 20.104 37.5289 20.104H47.1769V22.2H37.8809C37.3902 22.2 36.9849 22.3387 36.6649 22.616C36.5155 22.744 36.3235 23.0427 36.0889 23.512L36.0729 23.544H47.1769V25.544H36.0729L36.0889 25.592C36.3022 26.0507 36.4942 26.3493 36.6649 26.488C36.9849 26.7653 37.3902 26.904 37.8809 26.904Z" fill="white"/>
<path d="M54.4002 29C52.3522 29 51.0349 28.168 50.4482 26.504C50.2243 25.864 50.1122 25.192 50.1122 24.488V20.072H53.0243V24.216C53.0243 24.9093 53.2376 25.4533 53.6642 25.848C54.0056 26.168 54.4963 26.328 55.1362 26.328H63.5042V29H54.4002Z" fill="white"/>
<path d="M70.8177 29C68.7698 29 67.4524 28.168 66.8657 26.504C66.6417 25.864 66.5297 25.192 66.5297 24.488V20.072H69.4417V24.216C69.4417 24.9093 69.6551 25.4533 70.0817 25.848C70.4231 26.168 70.9137 26.328 71.5537 26.328H79.9218V29H70.8177Z" fill="white"/>
<path d="M83.5553 22.2V20.104H94.2272C95.2832 20.104 96.1206 20.3813 96.7393 20.936C97.1233 21.2773 97.3846 21.6773 97.5233 22.136C97.6193 22.4773 97.6673 22.9573 97.6673 23.576V29H85.7473C84.8726 29 84.1846 28.76 83.6833 28.28C83.1819 27.8 82.9313 27.128 82.9313 26.264C82.9313 25.4 83.1819 24.7333 83.6833 24.264C84.1953 23.784 84.8833 23.544 85.7473 23.544H94.9953V23.464C94.9953 22.8027 94.7499 22.4027 94.2593 22.264C94.1099 22.2213 93.8806 22.2 93.5713 22.2H83.5553ZM94.9953 26.904V25.544H86.4512C85.8859 25.544 85.6032 25.7733 85.6032 26.232C85.6032 26.68 85.8859 26.904 86.4512 26.904H94.9953Z" fill="white"/>
<path d="M111.182 23.24C111.182 22.9413 111.087 22.7067 110.895 22.536C110.756 22.408 110.543 22.344 110.255 22.344L103.614 22.328V29H100.942V20.104L110.702 20.072C111.748 20.072 112.548 20.3653 113.103 20.952C113.604 21.4853 113.854 22.0987 113.854 22.792V23.72H111.182V23.24Z" fill="white"/>
<path d="M186.232 30H175V17.552H177.672V21.104H186.232C188.045 21.104 189.299 21.776 189.992 23.12C190.333 23.7813 190.504 24.592 190.504 25.552C190.504 27.4827 189.843 28.7947 188.52 29.488C187.869 29.8293 187.107 30 186.232 30ZM185.88 23.328H177.672V27.776H185.88C186.499 27.776 186.968 27.552 187.288 27.104C187.565 26.72 187.704 26.2027 187.704 25.552C187.704 24.9013 187.565 24.384 187.288 24C186.968 23.552 186.499 23.328 185.88 23.328Z" fill="white"/>
<path d="M195.219 26.832C195.219 27.4613 195.528 27.776 196.147 27.776H204.243V21.104H206.915V30H195.715C194.627 30 193.827 29.7173 193.315 29.152C192.803 28.5867 192.547 27.9627 192.547 27.28V21.104H195.219V26.832Z" fill="white"/>
<path d="M219.756 24.24C219.756 23.9413 219.66 23.7067 219.468 23.536C219.329 23.408 219.116 23.344 218.828 23.344L212.188 23.328V30H209.516V21.104L219.276 21.072C220.321 21.072 221.121 21.3653 221.676 21.952C222.177 22.4853 222.428 23.0987 222.428 23.792V24.72H219.756V24.24Z" fill="white"/>
<path d="M241.311 21.12V30.256C241.311 31.3013 241.007 32.1173 240.399 32.704C239.791 33.2907 239.012 33.584 238.063 33.584L225.695 33.552V31.472L237.583 31.488C237.999 31.488 238.287 31.3653 238.447 31.12C238.575 30.928 238.639 30.6133 238.639 30.176V30H228.991C227.604 30 226.543 29.6107 225.807 28.832C225.081 28.0427 224.719 26.9493 224.719 25.552C224.719 24.1547 225.081 23.0667 225.807 22.288C226.543 21.4987 227.604 21.104 228.991 21.104L241.311 21.12ZM229.343 23.328C228.724 23.328 228.255 23.552 227.935 24C227.657 24.384 227.519 24.9013 227.519 25.552C227.519 26.2027 227.657 26.72 227.935 27.104C228.244 27.552 228.713 27.776 229.343 27.776L238.639 27.744V23.344L229.343 23.328Z" fill="white"/>
<path d="M248.608 27.904H257.904V30H248.256C246.87 30 245.808 29.6107 245.072 28.832C244.347 28.0427 243.984 26.9493 243.984 25.552C243.984 24.1547 244.347 23.0667 245.072 22.288C245.808 21.4987 246.87 21.104 248.256 21.104H257.904V23.2H248.608C248.118 23.2 247.712 23.3387 247.392 23.616C247.243 23.744 247.051 24.0427 246.816 24.512L246.8 24.544H257.904V26.544H246.8L246.816 26.592C247.03 27.0507 247.222 27.3493 247.392 27.488C247.712 27.7653 248.118 27.904 248.608 27.904Z" fill="white"/>
<path d="M270.584 24.24C270.584 23.9413 270.488 23.7067 270.296 23.536C270.157 23.408 269.944 23.344 269.656 23.344L263.016 23.328V30H260.344V21.104L270.104 21.072C271.149 21.072 271.949 21.3653 272.504 21.952C273.005 22.4853 273.256 23.0987 273.256 23.792V24.72H270.584V24.24Z" fill="white"/>
<path d="M278.347 26.544C277.515 26.544 276.838 26.304 276.315 25.824C275.803 25.3333 275.547 24.672 275.547 23.84C275.547 22.7413 275.979 21.9467 276.843 21.456C277.259 21.2213 277.76 21.104 278.347 21.104H289.675V23.2H278.875C278.288 23.2 277.995 23.424 277.995 23.872C277.995 24.32 278.288 24.544 278.875 24.544L287.355 24.56C288.187 24.56 288.859 24.8053 289.371 25.296C289.894 25.7867 290.155 26.448 290.155 27.28C290.155 28.4 289.723 29.1947 288.859 29.664C288.454 29.888 287.952 30 287.355 30H275.547V27.904L286.827 27.92C287.414 27.92 287.707 27.6907 287.707 27.232C287.707 26.784 287.414 26.56 286.827 26.56L278.347 26.544Z" fill="white"/>
<path d="M1 5V4.5H0.5V5H1ZM290.155 5H290.655V4.5H290.155V5ZM290.155 45V45.5H290.655V45H290.155ZM1 45H0.5V45.5H1V45ZM0.5 5V6H1.5V5H0.5ZM0.5 8V10H1.5V8H0.5ZM0.5 12V14H1.5V12H0.5ZM0.5 16V18H1.5V16H0.5ZM0.5 20V22H1.5V20H0.5ZM0.5 24V26H1.5V24H0.5ZM0.5 28V30H1.5V28H0.5ZM0.5 32V34H1.5V32H0.5ZM0.5 36V38H1.5V36H0.5ZM0.5 40V42H1.5V40H0.5ZM0.5 44V45H1.5V44H0.5ZM1 45.5H2.00401V44.5H1V45.5ZM4.01203 45.5H6.02005V44.5H4.01203V45.5ZM8.02807 45.5H10.0361V44.5H8.02807V45.5ZM12.0441 45.5H14.0521V44.5H12.0441V45.5ZM16.0602 45.5H18.0682V44.5H16.0602V45.5ZM20.0762 45.5H22.0842V44.5H20.0762V45.5ZM24.0922 45.5H26.1003V44.5H24.0922V45.5ZM28.1083 45.5H30.1163V44.5H28.1083V45.5ZM32.1243 45.5H34.1323V44.5H32.1243V45.5ZM36.1404 45.5H38.1484V44.5H36.1404V45.5ZM40.1564 45.5H42.1644V44.5H40.1564V45.5ZM44.1724 45.5H46.1804V44.5H44.1724V45.5ZM48.1885 45.5H50.1965V44.5H48.1885V45.5ZM52.2045 45.5H54.2125V44.5H52.2045V45.5ZM56.2205 45.5H58.2286V44.5H56.2205V45.5ZM60.2366 45.5H62.2446V44.5H60.2366V45.5ZM64.2526 45.5H66.2606V44.5H64.2526V45.5ZM68.2686 45.5H70.2767V44.5H68.2686V45.5ZM72.2847 45.5H74.2927V44.5H72.2847V45.5ZM76.3007 45.5H78.3087V44.5H76.3007V45.5ZM80.3168 45.5H82.3248V44.5H80.3168V45.5ZM84.3328 45.5H86.3408V44.5H84.3328V45.5ZM88.3488 45.5H90.3568V44.5H88.3488V45.5ZM92.3649 45.5H94.3729V44.5H92.3649V45.5ZM96.3809 45.5H98.3889V44.5H96.3809V45.5ZM100.397 45.5H102.405V44.5H100.397V45.5ZM104.413 45.5H106.421V44.5H104.413V45.5ZM108.429 45.5H110.437V44.5H108.429V45.5ZM112.445 45.5H114.453V44.5H112.445V45.5ZM116.461 45.5H118.469V44.5H116.461V45.5ZM120.477 45.5H122.485V44.5H120.477V45.5ZM124.493 45.5H126.501V44.5H124.493V45.5ZM128.509 45.5H130.517V44.5H128.509V45.5ZM132.525 45.5H134.533V44.5H132.525V45.5ZM136.541 45.5H138.549V44.5H136.541V45.5ZM140.557 45.5H142.565V44.5H140.557V45.5ZM144.573 45.5H146.581V44.5H144.573V45.5ZM148.589 45.5H150.597V44.5H148.589V45.5ZM152.606 45.5H154.614V44.5H152.606V45.5ZM156.622 45.5H158.63V44.5H156.622V45.5ZM160.638 45.5H162.646V44.5H160.638V45.5ZM164.654 45.5H166.662V44.5H164.654V45.5ZM168.67 45.5H170.678V44.5H168.67V45.5ZM172.686 45.5H174.694V44.5H172.686V45.5ZM176.702 45.5H178.71V44.5H176.702V45.5ZM180.718 45.5H182.726V44.5H180.718V45.5ZM184.734 45.5H186.742V44.5H184.734V45.5ZM188.75 45.5H190.758V44.5H188.75V45.5ZM192.766 45.5H194.774V44.5H192.766V45.5ZM196.782 45.5H198.79V44.5H196.782V45.5ZM200.798 45.5H202.806V44.5H200.798V45.5ZM204.814 45.5H206.822V44.5H204.814V45.5ZM208.83 45.5H210.838V44.5H208.83V45.5ZM212.846 45.5H214.854V44.5H212.846V45.5ZM216.862 45.5H218.87V44.5H216.862V45.5ZM220.878 45.5H222.886V44.5H220.878V45.5ZM224.894 45.5H226.902V44.5H224.894V45.5ZM228.911 45.5H230.919V44.5H228.911V45.5ZM232.927 45.5H234.935V44.5H232.927V45.5ZM236.943 45.5H238.951V44.5H236.943V45.5ZM240.959 45.5H242.967V44.5H240.959V45.5ZM244.975 45.5H246.983V44.5H244.975V45.5ZM248.991 45.5H250.999V44.5H248.991V45.5ZM253.007 45.5H255.015V44.5H253.007V45.5ZM257.023 45.5H259.031V44.5H257.023V45.5ZM261.039 45.5H263.047V44.5H261.039V45.5ZM265.055 45.5H267.063V44.5H265.055V45.5ZM269.071 45.5H271.079V44.5H269.071V45.5ZM273.087 45.5H275.095V44.5H273.087V45.5ZM277.103 45.5H279.111V44.5H277.103V45.5ZM281.119 45.5H283.127V44.5H281.119V45.5ZM285.135 45.5H287.143V44.5H285.135V45.5ZM289.151 45.5H290.155V44.5H289.151V45.5ZM290.655 45V44H289.655V45H290.655ZM290.655 42V40H289.655V42H290.655ZM290.655 38V36H289.655V38H290.655ZM290.655 34V32H289.655V34H290.655ZM290.655 30V28H289.655V30H290.655ZM290.655 26V24H289.655V26H290.655ZM290.655 22V20H289.655V22H290.655ZM290.655 18V16H289.655V18H290.655ZM290.655 14V12H289.655V14H290.655ZM290.655 10V8H289.655V10H290.655ZM290.655 6V5H289.655V6H290.655ZM290.155 4.5H289.151V5.5H290.155V4.5ZM287.143 4.5H285.135V5.5H287.143V4.5ZM283.127 4.5H281.119V5.5H283.127V4.5ZM279.111 4.5H277.103V5.5H279.111V4.5ZM275.095 4.5H273.087V5.5H275.095V4.5ZM271.079 4.5H269.071V5.5H271.079V4.5ZM267.063 4.5H265.055V5.5H267.063V4.5ZM263.047 4.5H261.039V5.5H263.047V4.5ZM259.031 4.5H257.023V5.5H259.031V4.5ZM255.015 4.5H253.007V5.5H255.015V4.5ZM250.998 4.5H248.99V5.5H250.998V4.5ZM246.982 4.5H244.974V5.5H246.982V4.5ZM242.966 4.5H240.958V5.5H242.966V4.5ZM238.95 4.5H236.942V5.5H238.95V4.5ZM234.934 4.5H232.926V5.5H234.934V4.5ZM230.918 4.5H228.91V5.5H230.918V4.5ZM226.902 4.5H224.894V5.5H226.902V4.5ZM222.886 4.5H220.878V5.5H222.886V4.5ZM218.87 4.5H216.862V5.5H218.87V4.5ZM214.854 4.5H212.846V5.5H214.854V4.5ZM210.838 4.5H208.83V5.5H210.838V4.5ZM206.822 4.5H204.814V5.5H206.822V4.5ZM202.806 4.5H200.798V5.5H202.806V4.5ZM198.79 4.5H196.782V5.5H198.79V4.5ZM194.774 4.5H192.766V5.5H194.774V4.5ZM190.758 4.5H188.75V5.5H190.758V4.5ZM186.742 4.5H184.734V5.5H186.742V4.5ZM182.726 4.5H180.718V5.5H182.726V4.5ZM178.71 4.5H176.702V5.5H178.71V4.5ZM174.694 4.5H172.686V5.5H174.694V4.5ZM170.678 4.5H168.67V5.5H170.678V4.5ZM166.662 4.5H164.654V5.5H166.662V4.5ZM162.646 4.5H160.638V5.5H162.646V4.5ZM158.63 4.5H156.622V5.5H158.63V4.5ZM154.614 4.5H152.606V5.5H154.614V4.5ZM150.598 4.5H148.589V5.5H150.598V4.5ZM146.581 4.5H144.573V5.5H146.581V4.5ZM142.565 4.5H140.557V5.5H142.565V4.5ZM138.549 4.5H136.541V5.5H138.549V4.5ZM134.533 4.5H132.525V5.5H134.533V4.5ZM130.517 4.5H128.509V5.5H130.517V4.5ZM126.501 4.5H124.493V5.5H126.501V4.5ZM122.485 4.5H120.477V5.5H122.485V4.5ZM118.469 4.5H116.461V5.5H118.469V4.5ZM114.453 4.5H112.445V5.5H114.453V4.5ZM110.437 4.5H108.429V5.5H110.437V4.5ZM106.421 4.5H104.413V5.5H106.421V4.5ZM102.405 4.5H100.397V5.5H102.405V4.5ZM98.3888 4.5H96.3808V5.5H98.3888V4.5ZM94.3728 4.5H92.3648V5.5H94.3728V4.5ZM90.3567 4.5H88.3487V5.5H90.3567V4.5ZM86.3407 4.5H84.3326V5.5H86.3407V4.5ZM82.3246 4.5H80.3166V5.5H82.3246V4.5ZM78.3086 4.5H76.3005V5.5H78.3086V4.5ZM74.2925 4.5H72.2845V5.5H74.2925V4.5ZM70.2765 4.5H68.2684V5.5H70.2765V4.5ZM66.2604 4.5H64.2524V5.5H66.2604V4.5ZM62.2444 4.5H60.2363V5.5H62.2444V4.5ZM58.2283 4.5H56.2203V5.5H58.2283V4.5ZM54.2123 4.5H52.2042V5.5H54.2123V4.5ZM50.1962 4.5H48.1882V5.5H50.1962V4.5ZM46.1802 4.5H44.1721V5.5H46.1802V4.5ZM42.1641 4.5H40.1561V5.5H42.1641V4.5ZM38.1481 4.5H36.14V5.5H38.1481V4.5ZM34.132 4.5H32.124V5.5H34.132V4.5ZM30.116 4.5H28.1079V5.5H30.116V4.5ZM26.0999 4.5H24.0919V5.5H26.0999V4.5ZM22.0839 4.5H20.0758V5.5H22.0839V4.5ZM18.0678 4.5H16.0598V5.5H18.0678V4.5ZM14.0518 4.5H12.0437V5.5H14.0518V4.5ZM10.0357 4.5H8.02768V5.5H10.0357V4.5ZM6.01965 4.5H4.01162V5.5H6.01965V4.5ZM2.00359 4.5H1V5.5H2.00359V4.5ZM1 5V4H0V5H1ZM290.155 5H291.155V4H290.155V5ZM290.155 45V46H291.155V45H290.155ZM1 45H0V46H1V45ZM0 5V6H2V5H0ZM0 8V10H2V8H0ZM0 12V14H2V12H0ZM0 16V18H2V16H0ZM0 20V22H2V20H0ZM0 24V26H2V24H0ZM0 28V30H2V28H0ZM0 32V34H2V32H0ZM0 36V38H2V36H0ZM0 40V42H2V40H0ZM0 44V45H2V44H0ZM1 46H2.00401V44H1V46ZM4.01203 46H6.02005V44H4.01203V46ZM8.02807 46H10.0361V44H8.02807V46ZM12.0441 46H14.0521V44H12.0441V46ZM16.0602 46H18.0682V44H16.0602V46ZM20.0762 46H22.0842V44H20.0762V46ZM24.0922 46H26.1003V44H24.0922V46ZM28.1083 46H30.1163V44H28.1083V46ZM32.1243 46H34.1323V44H32.1243V46ZM36.1404 46H38.1484V44H36.1404V46ZM40.1564 46H42.1644V44H40.1564V46ZM44.1724 46H46.1804V44H44.1724V46ZM48.1885 46H50.1965V44H48.1885V46ZM52.2045 46H54.2125V44H52.2045V46ZM56.2205 46H58.2286V44H56.2205V46ZM60.2366 46H62.2446V44H60.2366V46ZM64.2526 46H66.2606V44H64.2526V46ZM68.2686 46H70.2767V44H68.2686V46ZM72.2847 46H74.2927V44H72.2847V46ZM76.3007 46H78.3087V44H76.3007V46ZM80.3168 46H82.3248V44H80.3168V46ZM84.3328 46H86.3408V44H84.3328V46ZM88.3488 46H90.3568V44H88.3488V46ZM92.3649 46H94.3729V44H92.3649V46ZM96.3809 46H98.3889V44H96.3809V46ZM100.397 46H102.405V44H100.397V46ZM104.413 46H106.421V44H104.413V46ZM108.429 46H110.437V44H108.429V46ZM112.445 46H114.453V44H112.445V46ZM116.461 46H118.469V44H116.461V46ZM120.477 46H122.485V44H120.477V46ZM124.493 46H126.501V44H124.493V46ZM128.509 46H130.517V44H128.509V46ZM132.525 46H134.533V44H132.525V46ZM136.541 46H138.549V44H136.541V46ZM140.557 46H142.565V44H140.557V46ZM144.573 46H146.581V44H144.573V46ZM148.589 46H150.597V44H148.589V46ZM152.606 46H154.614V44H152.606V46ZM156.622 46H158.63V44H156.622V46ZM160.638 46H162.646V44H160.638V46ZM164.654 46H166.662V44H164.654V46ZM168.67 46H170.678V44H168.67V46ZM172.686 46H174.694V44H172.686V46ZM176.702 46H178.71V44H176.702V46ZM180.718 46H182.726V44H180.718V46ZM184.734 46H186.742V44H184.734V46ZM188.75 46H190.758V44H188.75V46ZM192.766 46H194.774V44H192.766V46ZM196.782 46H198.79V44H196.782V46ZM200.798 46H202.806V44H200.798V46ZM204.814 46H206.822V44H204.814V46ZM208.83 46H210.838V44H208.83V46ZM212.846 46H214.854V44H212.846V46ZM216.862 46H218.87V44H216.862V46ZM220.878 46H222.886V44H220.878V46ZM224.894 46H226.902V44H224.894V46ZM228.911 46H230.919V44H228.911V46ZM232.927 46H234.935V44H232.927V46ZM236.943 46H238.951V44H236.943V46ZM240.959 46H242.967V44H240.959V46ZM244.975 46H246.983V44H244.975V46ZM248.991 46H250.999V44H248.991V46ZM253.007 46H255.015V44H253.007V46ZM257.023 46H259.031V44H257.023V46ZM261.039 46H263.047V44H261.039V46ZM265.055 46H267.063V44H265.055V46ZM269.071 46H271.079V44H269.071V46ZM273.087 46H275.095V44H273.087V46ZM277.103 46H279.111V44H277.103V46ZM281.119 46H283.127V44H281.119V46ZM285.135 46H287.143V44H285.135V46ZM289.151 46H290.155V44H289.151V46ZM291.155 45V44H289.155V45H291.155ZM291.155 42V40H289.155V42H291.155ZM291.155 38V36H289.155V38H291.155ZM291.155 34V32H289.155V34H291.155ZM291.155 30V28H289.155V30H291.155ZM291.155 26V24H289.155V26H291.155ZM291.155 22V20H289.155V22H291.155ZM291.155 18V16H289.155V18H291.155ZM291.155 14V12H289.155V14H291.155ZM291.155 10V8H289.155V10H291.155ZM291.155 6V5H289.155V6H291.155ZM290.155 4H289.151V6H290.155V4ZM287.143 4H285.135V6H287.143V4ZM283.127 4H281.119V6H283.127V4ZM279.111 4H277.103V6H279.111V4ZM275.095 4H273.087V6H275.095V4ZM271.079 4H269.071V6H271.079V4ZM267.063 4H265.055V6H267.063V4ZM263.047 4H261.039V6H263.047V4ZM259.031 4H257.023V6H259.031V4ZM255.015 4H253.007V6H255.015V4ZM250.998 4H248.99V6H250.998V4ZM246.982 4H244.974V6H246.982V4ZM242.966 4H240.958V6H242.966V4ZM238.95 4H236.942V6H238.95V4ZM234.934 4H232.926V6H234.934V4ZM230.918 4H228.91V6H230.918V4ZM226.902 4H224.894V6H226.902V4ZM222.886 4H220.878V6H222.886V4ZM218.87 4H216.862V6H218.87V4ZM214.854 4H212.846V6H214.854V4ZM210.838 4H208.83V6H210.838V4ZM206.822 4H204.814V6H206.822V4ZM202.806 4H200.798V6H202.806V4ZM198.79 4H196.782V6H198.79V4ZM194.774 4H192.766V6H194.774V4ZM190.758 4H188.75V6H190.758V4ZM186.742 4H184.734V6H186.742V4ZM182.726 4H180.718V6H182.726V4ZM178.71 4H176.702V6H178.71V4ZM174.694 4H172.686V6H174.694V4ZM170.678 4H168.67V6H170.678V4ZM166.662 4H164.654V6H166.662V4ZM162.646 4H160.638V6H162.646V4ZM158.63 4H156.622V6H158.63V4ZM154.614 4H152.606V6H154.614V4ZM150.598 4H148.589V6H150.598V4ZM146.581 4H144.573V6H146.581V4ZM142.565 4H140.557V6H142.565V4ZM138.549 4H136.541V6H138.549V4ZM134.533 4H132.525V6H134.533V4ZM130.517 4H128.509V6H130.517V4ZM126.501 4H124.493V6H126.501V4ZM122.485 4H120.477V6H122.485V4ZM118.469 4H116.461V6H118.469V4ZM114.453 4H112.445V6H114.453V4ZM110.437 4H108.429V6H110.437V4ZM106.421 4H104.413V6H106.421V4ZM102.405 4H100.397V6H102.405V4ZM98.3888 4H96.3808V6H98.3888V4ZM94.3728 4H92.3648V6H94.3728V4ZM90.3567 4H88.3487V6H90.3567V4ZM86.3407 4H84.3326V6H86.3407V4ZM82.3246 4H80.3166V6H82.3246V4ZM78.3086 4H76.3005V6H78.3086V4ZM74.2925 4H72.2845V6H74.2925V4ZM70.2765 4H68.2684V6H70.2765V4ZM66.2604 4H64.2524V6H66.2604V4ZM62.2444 4H60.2363V6H62.2444V4ZM58.2283 4H56.2203V6H58.2283V4ZM54.2123 4H52.2042V6H54.2123V4ZM50.1962 4H48.1882V6H50.1962V4ZM46.1802 4H44.1721V6H46.1802V4ZM42.1641 4H40.1561V6H42.1641V4ZM38.1481 4H36.14V6H38.1481V4ZM34.132 4H32.124V6H34.132V4ZM30.116 4H28.1079V6H30.116V4ZM26.0999 4H24.0919V6H26.0999V4ZM22.0839 4H20.0758V6H22.0839V4ZM18.0678 4H16.0598V6H18.0678V4ZM14.0518 4H12.0437V6H14.0518V4ZM10.0357 4H8.02768V6H10.0357V4ZM6.01965 4H4.01162V6H6.01965V4ZM2.00359 4H1V6H2.00359V4Z" fill="#4C4CFF"/>
<defs>
<filter id="filter0_f_47088_704" x="123.012" y="0.5" width="43.3186" height="49" filterUnits="userSpaceOnUse" color-interpolation-filters="sRGB">
<feFlood flood-opacity="0" result="BackgroundImageFix"/>
<feBlend mode="normal" in="SourceGraphic" in2="BackgroundImageFix" result="shape"/>
<feGaussianBlur stdDeviation="2" result="effect1_foregroundBlur_47088_704"/>
</filter>
<filter id="filter1_f_47088_704" x="123.012" y="0.5" width="43.3186" height="49" filterUnits="userSpaceOnUse" color-interpolation-filters="sRGB">
<feFlood flood-opacity="0" result="BackgroundImageFix"/>
<feBlend mode="normal" in="SourceGraphic" in2="BackgroundImageFix" result="shape"/>
<feGaussianBlur stdDeviation="2" result="effect1_foregroundBlur_47088_704"/>
</filter>
<filter id="filter2_f_47088_704" x="120.581" y="20" width="48.792" height="17.013" filterUnits="userSpaceOnUse" color-interpolation-filters="sRGB">
<feFlood flood-opacity="0" result="BackgroundImageFix"/>
<feBlend mode="normal" in="SourceGraphic" in2="BackgroundImageFix" result="shape"/>
<feGaussianBlur stdDeviation="2" result="effect1_foregroundBlur_47088_704"/>
</filter>
<filter id="filter3_f_47088_704" x="120.581" y="20" width="48.792" height="17.013" filterUnits="userSpaceOnUse" color-interpolation-filters="sRGB">
<feFlood flood-opacity="0" result="BackgroundImageFix"/>
<feBlend mode="normal" in="SourceGraphic" in2="BackgroundImageFix" result="shape"/>
<feGaussianBlur stdDeviation="2" result="effect1_foregroundBlur_47088_704"/>
</filter>
<filter id="filter4_f_47088_704" x="120.5" y="14.5" width="49" height="12" filterUnits="userSpaceOnUse" color-interpolation-filters="sRGB">
<feFlood flood-opacity="0" result="BackgroundImageFix"/>
<feBlend mode="normal" in="SourceGraphic" in2="BackgroundImageFix" result="shape"/>
<feGaussianBlur stdDeviation="2" result="effect1_foregroundBlur_47088_704"/>
</filter>
<filter id="filter5_f_47088_704" x="120.5" y="14.5" width="49" height="12" filterUnits="userSpaceOnUse" color-interpolation-filters="sRGB">
<feFlood flood-opacity="0" result="BackgroundImageFix"/>
<feBlend mode="normal" in="SourceGraphic" in2="BackgroundImageFix" result="shape"/>
<feGaussianBlur stdDeviation="2" result="effect1_foregroundBlur_47088_704"/>
</filter>
<filter id="filter6_f_47088_704" x="130.885" y="2.81286" width="28.795" height="44.1871" filterUnits="userSpaceOnUse" color-interpolation-filters="sRGB">
<feFlood flood-opacity="0" result="BackgroundImageFix"/>
<feBlend mode="normal" in="SourceGraphic" in2="BackgroundImageFix" result="shape"/>
<feGaussianBlur stdDeviation="2" result="effect1_foregroundBlur_47088_704"/>
</filter>
<filter id="filter7_f_47088_704" x="130.885" y="2.81286" width="28.795" height="44.1871" filterUnits="userSpaceOnUse" color-interpolation-filters="sRGB">
<feFlood flood-opacity="0" result="BackgroundImageFix"/>
<feBlend mode="normal" in="SourceGraphic" in2="BackgroundImageFix" result="shape"/>
<feGaussianBlur stdDeviation="2" result="effect1_foregroundBlur_47088_704"/>
</filter>
</defs>
</svg>
